<svg id="Layer_1" data-name="Layer 1" xmlns="http://www.w3.org/2000/svg" xmlns:xlink="http://www.w3.org/1999/xlink" viewBox="0 0 24 24"><defs><style>.cls-1{fill:none;}.cls-2{fill:#ff5e16;}.cls-3{fill:#fff5ee;}.cls-4{clip-path:url(#clip-path);}.cls-5{fill:#ffdcbf;}.cls-6{fill:#ff9561;}</style><clipPath id="clip-path"><circle id="SVGID" class="cls-1" cx="12" cy="12" r="12"/></clipPath></defs><circle class="cls-2" cx="12" cy="12" r="12"/><circle class="cls-3" cx="12" cy="12" r="8.01"/><g class="cls-4"><path class="cls-5" d="M24,11.54c0-.13,0-.25,0-.38A32.57,32.57,0,0,0,12,9,34.13,34.13,0,0,0-.16,11.21c0,.29-.08.5-.08.79A12.66,12.66,0,0,0,5.34,22.33,15,15,0,0,1,24,11.54Z"/><path class="cls-6" d="M24,12c0-.16,0-.31,0-.46a15,15,0,0,0-12,1.69A15.27,15.27,0,0,1,18.62,22,12,12,0,0,0,24,12Z"/></g></svg>